<?xml version="1.0" encoding="iso-8859-1"?>
<!DOCTYPE svg PUBLIC "-//W3C//DTD SVG 1.1//EN" "http://www.w3.org/Graphics/SVG/1.1/DTD/svg11.dtd">
<svg 
 version="1.1" xmlns="http://www.w3.org/2000/svg" xmlns:xlink="http://www.w3.org/1999/xlink" x="0px" y="0px" width="512px"
	 height="512px" viewBox="0 0 512 512" enable-background="new 0 0 512 512" xml:space="preserve"
><g id="e6c6b53d3c8160b22dad35a0f70b7ee2"><g></g><g fill="#383838"><path display="inline" d="M244.891,350.225c39.406-7.151,72.285-46.744,79.835-93.947c14.12-1.679,28.24-2.938,42.36-3.558
		c0-13.574,0-27.156,0-40.729c-14.12,0.616-28.24,1.875-42.36,3.559c-7.551-45.758-40.43-76.136-79.835-68.985
		c-39.41,7.149-72.28,46.741-79.835,93.945c-14.12,1.679-28.24,2.938-42.36,3.558c0,13.574,0,27.156,0,40.729
		c14.12-0.616,28.24-1.875,42.36-3.559C172.606,326.996,205.481,357.371,244.891,350.225z M204.158,297.9
		c4.049-1.883,8.097-3.775,12.146-5.685c0-9.017,0-18.034,0-27.056c-4.049,0.682-8.097,1.35-12.146,1.996c0-5.329,0-10.657,0-15.981
		c4.049-0.651,8.097-1.319,12.146-1.996c0-4.713,0-9.43,0-14.142c-0.004-11.217,3.38-21.163,9.525-28.366
		c6.001-7.168,14.758-12.089,25.823-14.025c17.058-2.985,26.587,2.968,33.973,11.465c-4.817,4.617-9.634,9.26-14.45,13.912
		c-5.537-6.131-10.758-9.381-19.367-7.88c-4.76,0.833-8.301,2.99-11.222,6.266c-3.224,3.949-5.22,9.364-5.22,15.821
		c0,4.556,0,9.117,0,13.677c12.753-2.222,25.511-4.486,38.269-6.621c0,5.324,0,10.652,0,15.981
		c-12.758,2.14-25.515,4.404-38.269,6.626c0,8.757,0,17.522,0,26.279c16.65-2.898,33.296-5.867,49.946-8.54
		c0,5.48,0,10.961,0,16.446c-27.052,4.344-54.099,9.469-81.155,13.808C204.158,305.894,204.158,301.893,204.158,297.9z
		 M489.282,133.804c0-9.325,0-18.648,0-27.974c-162.929-57.023-325.854,57.025-488.782,0c0,95.042,0,190.083,0,285.123
		c7.405,2.591,14.813,4.717,22.217,6.635v18.924c22.747,4.313,45.494,6.118,68.249,6.118c102.617,0,205.242-35.921,307.854-35.916
		c37.557,0.004,75.123,4.813,112.68,17.956c0-90.289,0-180.577,0-270.866H489.282z M20.864,191.817
		c4.058,2.196,8.314,3.857,12.732,4.812c26.708,5.806,48.366-15.266,48.366-41.863c0-4.416-0.625-8.705-1.74-12.834
		c109.781,6.954,219.557-38.422,329.338-31.469c-1.12,3.983-1.74,8.212-1.74,12.623c0,26.824,21.657,49.067,48.366,54.873
		c4.413,0.957,8.674,1.374,12.731,1.33c0,41.896,0,83.788,0,125.681c-4.053-2.196-8.314-3.854-12.731-4.813
		c-26.713-5.807-48.366,15.266-48.366,41.865c0,4.409,0.625,8.705,1.74,12.832c-109.781-6.956-219.558,38.425-329.338,31.469
		c1.115-3.983,1.74-8.21,1.74-12.623c0-26.826-21.653-49.069-48.366-54.875c-4.413-0.955-8.674-1.372-12.732-1.333
		C20.864,275.601,20.864,233.708,20.864,191.817z"></path></g></g></svg>